<svg width="30" height="30" viewBox="0 0 30 30" fill="none" xmlns="http://www.w3.org/2000/svg">
<circle cx="15" cy="15" r="15" fill="white"/>
<path d="M11.25 23.25C10.8375 23.25 10.4844 23.1031 10.1906 22.8094C9.89687 22.5156 9.75 22.1625 9.75 21.75V8.25C9.75 7.8375 9.89687 7.48438 10.1906 7.19063C10.4844 6.89687 10.8375 6.75 11.25 6.75H18.75C19.1625 6.75 19.5156 6.89687 19.8094 7.19063C20.1031 7.48438 20.25 7.8375 20.25 8.25V21.75C20.25 22.1625 20.1031 22.5156 19.8094 22.8094C19.5156 23.1031 19.1625 23.25 18.75 23.25H11.25ZM15 21.375C15.2125 21.375 15.3906 21.3031 15.5344 21.1594C15.6781 21.0156 15.75 20.8375 15.75 20.625C15.75 20.4125 15.6781 20.2344 15.5344 20.0906C15.3906 19.9469 15.2125 19.875 15 19.875C14.7875 19.875 14.6094 19.9469 14.4656 20.0906C14.3219 20.2344 14.25 20.4125 14.25 20.625C14.25 20.8375 14.3219 21.0156 14.4656 21.1594C14.6094 21.3031 14.7875 21.375 15 21.375ZM11.25 18H18.75V10.5H11.25V18Z" fill="#3E9CE2"/>
</svg>
