<svg width="40" height="40" viewBox="0 0 40 40" fill="none" xmlns="http://www.w3.org/2000/svg">
<circle cx="20" cy="20" r="20" fill="#D9D9D9"/>
<g clip-path="url(#clip0_257_5720)">
<path d="M10.625 10.9337V11.2423L12.5508 11.2618C14.3984 11.2775 14.4844 11.2814 14.7656 11.3634C15.4336 11.5626 16.0234 11.9923 16.3906 12.547C16.5664 12.8126 16.7617 13.2931 16.8164 13.6017L16.8438 13.7501H15.9102H14.9805L14.9102 13.5548C14.8164 13.2892 14.5234 13.0001 14.2383 12.8947C14.0312 12.8165 13.9492 12.8126 12.3242 12.8126H10.625V13.1212V13.4337L12.2578 13.4454C13.8203 13.4572 13.8906 13.4611 14.0234 13.5392C14.1992 13.6407 14.3359 13.8439 14.3359 14.0001C14.3359 14.0665 13.9922 15.8478 13.5664 17.9611C13.1445 20.0704 12.8086 21.8048 12.8203 21.8165C12.8594 21.8556 13.4141 21.9532 13.4375 21.9259C13.4531 21.9064 13.7852 20.2853 14.1758 18.3204C14.5703 16.3556 14.9062 14.6642 14.9297 14.5587L14.9688 14.3751H15.9375H16.9062L16.9648 14.6368C16.9961 14.7853 17.2891 16.1954 17.6172 17.7736C17.9453 19.3517 18.2266 20.6603 18.2422 20.6759C18.2852 20.7267 18.8672 20.59 18.8672 20.5314C18.8672 20.504 18.5625 19.0157 18.1875 17.2228C17.8164 15.4298 17.5 13.84 17.4883 13.6876C17.457 13.2892 17.3633 12.9611 17.168 12.5587C16.8203 11.8478 16.3008 11.3204 15.6055 10.9767C14.918 10.6407 15.0195 10.6525 12.6875 10.6368L10.625 10.6212V10.9337Z" fill="#33567A"/>
<path d="M21.6094 13.2462C21.2148 13.4415 21.0117 13.7618 20.9844 14.2188C20.9648 14.586 21.0625 14.8751 21.2891 15.1016C21.3711 15.1876 21.7812 15.4766 22.1914 15.7462L22.9414 16.2306L20.75 16.2423L18.5547 16.2501V16.5626V16.8751L21.1758 16.8829L23.7969 16.8946L23.8828 17.129C24.3594 18.422 25.2695 19.3087 26.4258 19.6095C26.8047 19.711 27.7852 19.7657 27.8281 19.6915C27.8438 19.6681 27.8477 19.5157 27.832 19.3595L27.8047 19.0743L27.3086 19.0509C26.7539 19.0274 26.4727 18.961 26.0703 18.7657C25.3594 18.4181 24.7852 17.6954 24.4727 16.754L24.332 16.336L23.0586 15.504C22.1953 14.9376 21.7617 14.6329 21.7148 14.5548C21.5156 14.2266 21.7539 13.7891 22.1289 13.7891C22.3555 13.7891 25.0508 14.8634 25.8594 15.2735C26.5156 15.6134 27.2969 16.1056 27.9102 16.5743L28.2969 16.8751H28.8359H29.375V16.5626V16.2501H28.9805H28.5898L28.2695 16.004C27.5234 15.4298 26.7109 14.9259 25.8789 14.5274C25.5781 14.3829 24.6797 14.0079 23.8828 13.6954C22.4727 13.1407 22.4258 13.1251 22.1406 13.1251C21.8945 13.1251 21.8125 13.1446 21.6094 13.2462Z" fill="#33567A"/>
<path d="M18.6523 13.8242C18.3125 13.9805 18.125 14.293 18.125 14.6953C18.1289 15.25 18.5039 15.625 19.0625 15.625C19.625 15.625 20 15.25 20 14.6875C20 14.2812 19.793 13.957 19.4453 13.8125C19.2422 13.7266 18.8477 13.7344 18.6523 13.8242ZM19.2578 14.4922C19.3008 14.5352 19.3359 14.6211 19.3359 14.6875C19.3359 14.7539 19.3008 14.8398 19.2578 14.8828C19.2148 14.9258 19.1289 14.9609 19.0625 14.9609C18.9961 14.9609 18.9102 14.9258 18.8672 14.8828C18.8242 14.8398 18.7891 14.7539 18.7891 14.6875C18.7891 14.6211 18.8242 14.5352 18.8672 14.4922C18.9102 14.4492 18.9961 14.4141 19.0625 14.4141C19.1289 14.4141 19.2148 14.4492 19.2578 14.4922Z" fill="#33567A"/>
<path d="M15.2579 15.5898C15.2305 15.6758 15.0235 19.7617 15.043 19.7812C15.0548 19.793 15.2032 19.8047 15.3712 19.8125L15.6837 19.8242L15.797 17.7266C15.8634 16.5703 15.9063 15.6211 15.8946 15.6094C15.8868 15.6016 15.7423 15.582 15.5782 15.5664C15.336 15.543 15.2696 15.5469 15.2579 15.5898Z" fill="#33567A"/>
<path d="M16.457 17.2148C16.3163 17.2305 16.289 17.2461 16.289 17.3164C16.2851 17.3633 16.3437 18.1367 16.414 19.0391L16.5429 20.6719L16.8554 20.6445C17.0273 20.6289 17.1757 20.6094 17.1835 20.6016C17.1953 20.5938 17.1406 19.8203 17.0703 18.8867L16.9374 17.1875L16.7773 17.1953C16.6913 17.1992 16.5468 17.207 16.457 17.2148Z" fill="#33567A"/>
<path d="M19.1407 18.4375V18.75H19.25H19.3633L19.25 18.9727C19.1133 19.25 19.0743 19.5352 19.1407 19.7969C19.2227 20.1484 19.3633 20.3086 20 20.7969L20.5938 21.25L17.5899 21.2578L14.5899 21.2695L14.4219 21.3594C14.2071 21.4727 13.9727 21.707 13.8594 21.9219C13.7852 22.0625 13.7696 22.1484 13.7696 22.4805C13.7696 22.8242 13.7813 22.8945 13.875 23.082L13.9766 23.293L13.7891 23.4805C13.5196 23.75 13.4258 24.0195 13.4454 24.4531C13.4571 24.6992 13.4844 24.8281 13.5508 24.957C13.6797 25.2031 13.9532 25.4492 14.2032 25.543C14.4102 25.6211 14.4883 25.625 17.0508 25.625H19.6875V25.3125V25.0039L17.1211 24.9922C14.6094 24.9805 14.5469 24.9805 14.4141 24.8984C13.9961 24.6523 13.9961 24.0977 14.4141 23.8516C14.5469 23.7695 14.6094 23.7695 17.1211 23.7578L19.6875 23.7461V23.4375V23.1289L17.2774 23.1172C14.9219 23.1055 14.8594 23.1016 14.7266 23.0234C14.3086 22.7773 14.3086 22.2227 14.7266 21.9766C14.8594 21.8945 14.9219 21.8945 18.3125 21.875C21.6719 21.8555 21.7657 21.8516 21.8204 21.7812C21.8985 21.6719 21.8907 21.4219 21.8047 21.3359C21.7657 21.2969 21.336 20.9648 20.8516 20.5938C20.3633 20.2266 19.9297 19.8789 19.8868 19.8203C19.6836 19.5625 19.7696 19.2305 20.0821 19.0703C20.1993 19.0117 20.2891 18.9922 20.3633 19.0078C20.4219 19.0195 20.9844 19.2422 21.6133 19.5C23.3477 20.2109 24.1993 20.6719 25.2657 21.4727L25.7969 21.875H27.586H29.375V21.5625V21.25H27.7305H26.0899L25.7696 21C24.7579 20.2188 23.6446 19.5977 22.2188 19.0195L21.6016 18.7695L21.8946 18.7578L22.1875 18.7461V18.4375V18.125H20.6641H19.1407V18.4375Z" fill="#33567A"/>
<path d="M11.4648 22.2617C11.125 22.418 10.9375 22.7305 10.9375 23.1328C10.9414 23.6875 11.3164 24.0625 11.875 24.0625C12.4375 24.0625 12.8125 23.6875 12.8125 23.125C12.8125 22.7187 12.6055 22.3945 12.2578 22.25C12.0547 22.1641 11.6602 22.1719 11.4648 22.2617ZM12.0703 22.9297C12.2383 23.0977 12.1133 23.3984 11.875 23.3984C11.7266 23.3984 11.6016 23.2734 11.6016 23.125C11.6016 22.9766 11.7266 22.8516 11.875 22.8516C11.9414 22.8516 12.0273 22.8867 12.0703 22.9297Z" fill="#33567A"/>
<path d="M21.7773 24.4492C21.4375 24.6055 21.25 24.918 21.25 25.3203C21.2539 25.875 21.6289 26.25 22.1875 26.25C22.75 26.25 23.125 25.875 23.125 25.3125C23.125 24.9062 22.918 24.582 22.5703 24.4375C22.3672 24.3516 21.9727 24.3594 21.7773 24.4492ZM22.3828 25.1172C22.4258 25.1602 22.4609 25.2461 22.4609 25.3125C22.4609 25.3789 22.4258 25.4648 22.3828 25.5078C22.2148 25.6758 21.9141 25.5508 21.9141 25.3125C21.9141 25.1641 22.0391 25.0391 22.1875 25.0391C22.2539 25.0391 22.3398 25.0742 22.3828 25.1172Z" fill="#33567A"/>
<path d="M14.0625 26.3829C14.0625 26.8243 14.4297 27.293 14.8984 27.4454C15.0078 27.4805 15.1016 27.5157 15.1055 27.5196C15.1133 27.5235 15.0898 27.6094 15.0547 27.711C14.9648 27.9766 14.9922 28.4375 15.1133 28.6875C15.2344 28.9336 15.4414 29.1407 15.6875 29.2618L15.8789 29.3555L19.1797 29.3672C22.7969 29.3789 22.7695 29.3789 23.7109 29.1407C24.4336 28.9571 25.4961 28.5625 26.1406 28.2383L26.3633 28.125H27.8711H29.375V27.8125V27.5H27.7539H26.1328L25.793 27.6602C24.6719 28.1797 23.7266 28.4922 22.793 28.6602C22.4414 28.7227 22.0938 28.7305 19.2578 28.7305C16.1562 28.7305 16.1133 28.7305 15.9766 28.6485C15.5586 28.4024 15.5586 27.8477 15.9766 27.6016C16.1094 27.5235 16.1797 27.5196 17.9023 27.5079L19.6875 27.4961V27.1875V26.8789L17.4336 26.8672C15.2383 26.8555 15.1719 26.8516 15.0391 26.7735C14.8789 26.6797 14.7266 26.4727 14.7266 26.3438C14.7266 26.2539 14.7188 26.25 14.3945 26.25H14.0625V26.3829Z" fill="#33567A"/>
</g>
<defs>
<clipPath id="clip0_257_5720">
<rect width="20" height="20" fill="white" transform="translate(10 10)"/>
</clipPath>
</defs>
</svg>
