<svg width="30" height="30" viewBox="0 0 30 30" fill="none" xmlns="http://www.w3.org/2000/svg">
<circle cx="15" cy="15" r="15" fill="white"/>
<g clip-path="url(#clip0_29_679)">
<path d="M21.3144 18.604L19.524 14.4239H24L21.3144 18.604ZM9.73831 18.9191C9.73086 18.9571 9.73086 18.9963 9.73831 19.0344H8.15539L10.9293 15.1039L9.73831 18.9191ZM7.53682 18.5771L6 13.9667L11.206 13.3558L7.53682 18.5771ZM9.6461 8.97204L11.4365 12.549L6.36499 13.1675L9.6461 8.97204ZM18.94 13.1291L16.5733 8.11142L20.7074 9.29093L18.94 13.1291ZM18.2792 13.5402L12.6928 12.6105L15.7972 8.27663L18.2792 13.5402ZM12.082 12.1456L10.3069 8.59167L15.0442 8L12.082 12.1456ZM18.4713 14.3509L14.1298 18.6886L12.5661 13.3673L18.4713 14.3509ZM18.94 14.981L20.6613 19.0344H14.8713L18.94 14.981ZM19.5394 13.6555L21.3106 9.81345L23.9693 13.6555H19.5394ZM10.4376 19.2034C10.4575 19.1888 10.4745 19.1706 10.4875 19.1496L12.0243 14.2087L13.5612 19.4723V22.0119L10.4376 19.2034Z" fill="#42A5FF"/>
</g>
<defs>
<clipPath id="clip0_29_679">
<rect width="18" height="14.0119" fill="white" transform="translate(6 8)"/>
</clipPath>
</defs>
</svg>
