<svg width="30" height="30" viewBox="0 0 30 30" fill="none" xmlns="http://www.w3.org/2000/svg">
<circle cx="15" cy="15" r="15" fill="white"/>
<path d="M12.75 22.5L11.7375 19.0875C11.1375 18.6125 10.6563 18.0188 10.2938 17.3063C9.93125 16.5938 9.75 15.825 9.75 15C9.75 14.175 9.93125 13.4062 10.2938 12.6938C10.6563 11.9813 11.1375 11.3875 11.7375 10.9125L12.75 7.5H17.25L18.2625 10.9125C18.8625 11.3875 19.3438 11.9813 19.7063 12.6938C20.0688 13.4062 20.25 14.175 20.25 15C20.25 15.825 20.0688 16.5938 19.7063 17.3063C19.3438 18.0188 18.8625 18.6125 18.2625 19.0875L17.25 22.5H12.75ZM15 18.75C16.0375 18.75 16.9219 18.3844 17.6531 17.6531C18.3844 16.9219 18.75 16.0375 18.75 15C18.75 13.9625 18.3844 13.0781 17.6531 12.3469C16.9219 11.6156 16.0375 11.25 15 11.25C13.9625 11.25 13.0781 11.6156 12.3469 12.3469C11.6156 13.0781 11.25 13.9625 11.25 15C11.25 16.0375 11.6156 16.9219 12.3469 17.6531C13.0781 18.3844 13.9625 18.75 15 18.75Z" fill="#3E9CE2"/>
</svg>
