<svg width="30" height="30" viewBox="0 0 30 30" fill="none" xmlns="http://www.w3.org/2000/svg">
<circle cx="15" cy="15" r="15" fill="white"/>
<path d="M12.75 16.6875C12.4875 16.6875 12.2656 16.5969 12.0844 16.4156C11.9031 16.2344 11.8125 16.0125 11.8125 15.75C11.8125 15.4875 11.9031 15.2656 12.0844 15.0844C12.2656 14.9031 12.4875 14.8125 12.75 14.8125C13.0125 14.8125 13.2344 14.9031 13.4156 15.0844C13.5969 15.2656 13.6875 15.4875 13.6875 15.75C13.6875 16.0125 13.5969 16.2344 13.4156 16.4156C13.2344 16.5969 13.0125 16.6875 12.75 16.6875ZM17.25 16.6875C16.9875 16.6875 16.7656 16.5969 16.5844 16.4156C16.4031 16.2344 16.3125 16.0125 16.3125 15.75C16.3125 15.4875 16.4031 15.2656 16.5844 15.0844C16.7656 14.9031 16.9875 14.8125 17.25 14.8125C17.5125 14.8125 17.7344 14.9031 17.9156 15.0844C18.0969 15.2656 18.1875 15.4875 18.1875 15.75C18.1875 16.0125 18.0969 16.2344 17.9156 16.4156C17.7344 16.5969 17.5125 16.6875 17.25 16.6875ZM15 21C16.675 21 18.0938 20.4188 19.2563 19.2563C20.4188 18.0938 21 16.675 21 15C21 14.7 20.9813 14.4094 20.9438 14.1281C20.9063 13.8469 20.8375 13.575 20.7375 13.3125C20.475 13.375 20.2125 13.4219 19.95 13.4531C19.6875 13.4844 19.4125 13.5 19.125 13.5C17.9875 13.5 16.9125 13.2563 15.9 12.7688C14.8875 12.2812 14.025 11.6 13.3125 10.725C12.9125 11.7 12.3406 12.5469 11.5969 13.2656C10.8531 13.9844 9.9875 14.525 9 14.8875V15C9 16.675 9.58125 18.0938 10.7438 19.2563C11.9062 20.4188 13.325 21 15 21ZM15 22.5C13.9625 22.5 12.9875 22.3031 12.075 21.9094C11.1625 21.5156 10.3688 20.9813 9.69375 20.3063C9.01875 19.6313 8.48438 18.8375 8.09063 17.925C7.69688 17.0125 7.5 16.0375 7.5 15C7.5 13.9625 7.69688 12.9875 8.09063 12.075C8.48438 11.1625 9.01875 10.3688 9.69375 9.69375C10.3688 9.01875 11.1625 8.48438 12.075 8.09063C12.9875 7.69688 13.9625 7.5 15 7.5C16.0375 7.5 17.0125 7.69688 17.925 8.09063C18.8375 8.48438 19.6313 9.01875 20.3063 9.69375C20.9813 10.3688 21.5156 11.1625 21.9094 12.075C22.3031 12.9875 22.5 13.9625 22.5 15C22.5 16.0375 22.3031 17.0125 21.9094 17.925C21.5156 18.8375 20.9813 19.6313 20.3063 20.3063C19.6313 20.9813 18.8375 21.5156 17.925 21.9094C17.0125 22.3031 16.0375 22.5 15 22.5Z" fill="#3E9CE2"/>
</svg>
