<svg width="40" height="40" viewBox="0 0 40 40" fill="none" xmlns="http://www.w3.org/2000/svg">
<circle cx="20" cy="20" r="20" fill="#D9D9D9"/>
<path d="M17.6798 10.0625C17.254 10.1406 16.7345 10.3203 16.3204 10.5352C15.7423 10.832 15.5978 11.0273 15.7853 11.2656C15.9103 11.4258 16.0782 11.4023 16.4884 11.168C17.4415 10.6172 18.5743 10.4727 19.6876 10.7617C20.8243 11.0547 21.8985 11.9688 22.4064 13.0703C22.7267 13.7578 22.8126 14.3086 22.8126 15.6289C22.8126 16.3281 22.8243 16.5898 22.8673 16.7031C22.8985 16.7891 23.0665 17.1172 23.2384 17.4414C23.7189 18.3359 23.7071 18.3594 22.7306 18.3594H22.0743L21.9962 18.4609C21.9025 18.5781 21.8946 18.6641 21.9571 18.8008C22.0196 18.9414 22.1525 18.9844 22.5001 18.9844H22.8126V19.2539V19.5234L22.2384 19.5391C21.7579 19.5547 21.6212 19.5703 21.4376 19.6445C21.1368 19.7617 20.8282 20.0508 20.6095 20.4219C20.4064 20.7578 20.3751 20.9883 20.4923 21.2383C20.6564 21.582 21.0118 21.6797 21.465 21.5039C21.6993 21.4102 21.8126 21.3945 22.2696 21.3789L22.8048 21.3594L22.7696 21.543C22.7228 21.793 22.5196 22.1602 22.34 22.3242C21.9845 22.6445 21.6485 22.7344 20.8087 22.7344C18.7892 22.7305 17.3907 22.1992 16.1485 20.957C15.629 20.4414 15.4845 20.2422 15.0196 19.457C14.715 18.9453 14.6954 18.9219 14.4454 18.7695C14.1056 18.5664 13.9376 18.4023 13.797 18.1289C13.6446 17.8398 13.5939 17.582 13.5939 17.0898C13.5939 16.5742 13.6485 16.3281 13.8048 16.1211C14.1798 15.6289 14.8087 15.5781 15.2384 16.0078C15.4884 16.2617 15.547 16.4688 15.547 17.1289C15.547 17.5156 15.5626 17.6602 15.6056 17.7227C15.7267 17.8945 16.0392 17.8672 16.129 17.6719C16.1837 17.5469 16.1837 16.6328 16.129 16.3594C16.0353 15.9062 15.6993 15.4688 15.2853 15.2578C15.0626 15.1484 14.6212 15.0586 14.4493 15.0938L14.336 15.1133V14.9102C14.336 14.0586 14.6134 13.1641 15.0978 12.4414C15.336 12.0898 15.3673 11.9297 15.2306 11.793C15.172 11.7344 15.1134 11.7188 14.9884 11.7266C14.84 11.7383 14.8126 11.7578 14.6368 11.9922C14.3634 12.3594 14.004 13.1133 13.8907 13.5586C13.7814 13.9922 13.711 14.5469 13.711 15V15.3164L13.4962 15.5156C13.2501 15.7383 13.0704 16.0742 13.004 16.4258C12.9337 16.7969 12.9806 17.7734 13.0821 18.0898C13.2345 18.5664 13.6134 19.0312 14.047 19.2773C14.215 19.3711 14.2735 19.4375 14.4376 19.7227C14.8009 20.3594 15.1681 20.8711 15.5626 21.2812C16.4806 22.2305 17.5001 22.832 18.7423 23.1406C19.4025 23.3047 19.6954 23.3359 20.7228 23.3359C21.6251 23.3398 21.7189 23.332 21.9728 23.2539C22.465 23.0977 22.9064 22.7422 23.1642 22.2891C23.2735 22.1016 23.3673 21.7891 23.4181 21.4727C23.4376 21.3477 23.4532 21.3281 23.5079 21.3516C23.5431 21.3672 23.6876 21.3867 23.8282 21.3945C24.0626 21.4102 24.4376 21.332 25.2071 21.1094C25.2696 21.0898 25.2735 21.1406 25.2735 21.8125V22.5352L25.0314 22.4102C24.8282 22.3047 24.7501 22.2852 24.5157 22.2852C24.2657 22.2891 24.2071 22.3047 23.9493 22.4414C23.6134 22.625 23.5001 22.7812 23.5275 23.0195C23.5392 23.1094 23.6954 23.4219 23.9298 23.8359L24.3126 24.5039L24.1251 26.2266C24.0196 27.1758 23.9259 28.0117 23.9142 28.0859C23.8985 28.1992 23.8478 28.0781 23.5704 27.2617C23.2501 26.3047 23.1056 25.9609 22.879 25.625C22.3751 24.8789 21.5587 24.2969 20.6642 24.0547C20.34 23.9648 20.297 23.9648 18.4181 23.9648H16.504L16.1212 24.0703C15.4806 24.2461 14.8048 24.6016 14.379 24.9844C14.1603 25.1797 14.1134 25.3047 14.1954 25.4648C14.3204 25.707 14.5157 25.6836 14.8829 25.3906C15.2267 25.1133 15.8321 24.8047 16.2696 24.6797C16.5665 24.5977 16.6642 24.5938 18.297 24.5781C19.7423 24.5664 20.0587 24.5742 20.3165 24.6289C21.1525 24.7969 21.9064 25.3047 22.3595 26.0078C22.6017 26.3789 22.5939 26.3555 23.1485 28L23.629 29.4141L21.9259 29.4062L20.2228 29.3945L19.8439 28.2656C19.6017 27.5352 19.4415 27.1172 19.3946 27.0859C19.3087 27.0234 19.129 27.0156 19.0235 27.0703C18.9845 27.0898 18.9337 27.1641 18.9103 27.2305C18.8712 27.3438 18.9025 27.4609 19.1993 28.3555C19.3829 28.9102 19.5314 29.3711 19.5314 29.3867C19.5314 29.4023 18.1564 29.4141 16.4806 29.4141H13.4298L13.4493 28.6055C13.4689 27.6875 13.5392 27.3203 13.8048 26.7422C13.961 26.4023 13.965 26.375 13.9025 26.2344C13.8439 26.1055 13.672 26.0469 13.5157 26.1016C13.3829 26.1445 13.2696 26.3359 13.0978 26.7969C12.8946 27.3359 12.8478 27.6523 12.8243 28.6367C12.8009 29.6562 12.8204 29.7891 13.0079 29.9219C13.1173 30 13.1603 30 20.0353 30C26.9025 30 26.9532 30 27.0314 29.9219C27.1095 29.8438 27.1095 29.793 27.1095 26.5859V23.3242L27.0079 23.2461C26.879 23.1445 26.715 23.1406 26.5978 23.2383L26.504 23.3125L26.4923 26.3633L26.4845 29.4141H25.4493C24.4689 29.4141 24.4142 29.4102 24.4142 29.3438C24.4142 29.2188 24.8439 25.418 24.8595 25.4023C24.8673 25.3945 24.9259 25.4336 24.9923 25.4883C25.2892 25.7383 25.6642 25.8125 25.8126 25.6523C25.9884 25.4648 25.8907 25.1914 25.6212 25.1133C25.5392 25.0859 25.4142 25.0117 25.3517 24.9453C25.2853 24.8789 25.0001 24.418 24.711 23.918L24.1876 23.0117L24.3556 22.9453C24.4923 22.8945 24.5509 22.8906 24.6603 22.9258C24.8243 22.9805 24.8673 23.0273 25.0782 23.3984C25.3556 23.8828 25.4103 23.9453 25.5821 23.9453C25.6837 23.9453 25.754 23.918 25.8126 23.8555C25.8985 23.7656 25.8985 23.75 25.8985 22.3398C25.8985 20.7539 25.8946 20.7344 25.629 20.5586C25.4415 20.4297 25.2423 20.4453 24.5704 20.625C23.9298 20.7969 23.836 20.8086 23.672 20.7227C23.5587 20.6641 23.4376 20.4883 23.4376 20.3789C23.4376 20.3125 25.6329 19.7148 25.8595 19.7188C26.0587 19.7227 26.2228 19.8125 26.3556 19.9883L26.465 20.1289L26.4845 21.2031C26.504 22.2695 26.504 22.2734 26.5978 22.3477C26.7267 22.4531 26.8985 22.4414 27.0157 22.3242L27.1134 22.2266L27.1017 21.1211L27.09 20.0195L26.9806 19.7969C26.8595 19.5547 26.6525 19.3438 26.3985 19.2148C26.2735 19.1484 26.1446 19.1211 25.8985 19.1133C25.586 19.0977 25.504 19.1133 24.504 19.3867L23.4376 19.6758V19.3086C23.4376 18.957 23.4415 18.9453 23.5275 18.9453C23.672 18.9453 23.9142 18.7812 24.0431 18.6016C24.1485 18.4453 24.1603 18.4023 24.1603 18.1133V17.793L23.8009 17.1289L23.4454 16.4648L23.4259 15.332C23.4103 14.5195 23.3868 14.1172 23.3439 13.9062C22.9259 11.918 21.3829 10.3984 19.4376 10.0586C19.0079 9.98438 18.1017 9.98438 17.6798 10.0625ZM22.8126 20.4453V20.7305L22.2384 20.7539C21.6915 20.7734 21.465 20.8125 21.1251 20.957C21.0196 21 21.0392 20.9258 21.1915 20.6875C21.3517 20.4336 21.5431 20.2734 21.7462 20.207C21.8282 20.1836 22.1017 20.1602 22.3556 20.1602L22.8126 20.1562V20.4453Z" fill="#33567A"/>
<path d="M16.6134 11.8438C16.4533 11.922 16.4416 12.0274 16.4533 13.3946L16.465 14.6954L16.5588 14.7696C16.6838 14.8712 16.8791 14.8673 16.9845 14.754C17.0705 14.6641 17.0705 14.6446 17.0705 13.3126V11.9571L16.9689 11.879C16.8556 11.7891 16.7463 11.7774 16.6134 11.8438Z" fill="#33567A"/>
<path d="M17.8203 11.8436C17.6719 11.9178 17.6484 12.1014 17.6641 13.1171L17.6758 14.0702L17.7891 14.1678C17.8789 14.2421 17.9297 14.2577 18.0195 14.2421C18.2852 14.1874 18.2813 14.203 18.2813 13.0233V11.9569L18.1797 11.8788C18.0664 11.7889 17.957 11.7772 17.8203 11.8436Z" fill="#33567A"/>
<path d="M18.9962 11.8906L18.8868 11.9843L18.8751 12.6015C18.8595 13.2968 18.879 13.4492 18.9884 13.5586C19.0899 13.6601 19.3126 13.6562 19.4141 13.5547C19.4884 13.4804 19.4923 13.4258 19.4923 12.7187V11.957L19.3907 11.8789C19.254 11.7695 19.129 11.7773 18.9962 11.8906Z" fill="#33567A"/>
<path d="M24.2383 16.0742C24.1133 16.1953 24.1172 16.2734 24.2617 16.6758C24.4141 17.0898 24.461 17.1484 24.6563 17.1484C24.8438 17.1484 24.961 17.0391 24.961 16.8633C24.961 16.7109 24.7578 16.1523 24.6641 16.0508C24.5664 15.9414 24.3555 15.9531 24.2383 16.0742Z" fill="#33567A"/>
<path d="M20.5508 16.3828C19.9492 16.5859 19.5781 16.7344 19.5469 16.7773C19.4102 16.9648 19.5547 17.2656 19.7774 17.2656C19.918 17.2656 21.7344 16.6719 21.8242 16.5938C21.9727 16.4727 21.9531 16.1797 21.7969 16.0938C21.6641 16.0234 21.5078 16.0586 20.5508 16.3828Z" fill="#33567A"/>
<path d="M25.9492 16.4648C25.6992 16.7266 25.5469 16.9531 25.5469 17.0586C25.5469 17.2695 25.7266 17.4102 25.9375 17.3633C26.0898 17.3281 26.5625 16.75 26.5625 16.5977C26.5625 16.4375 26.4102 16.2891 26.2461 16.2891C26.1484 16.2891 26.082 16.3281 25.9492 16.4648Z" fill="#33567A"/>
<path d="M14.4375 16.4492C14.3359 16.5273 14.3359 16.5312 14.3359 17.0898C14.3359 17.7148 14.3633 17.793 14.5977 17.8359C14.7031 17.8555 14.7422 17.8398 14.8438 17.7422L14.9609 17.625V17.1328C14.9609 16.6055 14.9297 16.4805 14.7773 16.4101C14.6406 16.3476 14.5547 16.3555 14.4375 16.4492Z" fill="#33567A"/>
<path d="M26.0782 17.9726C25.9375 18.082 25.9336 18.3203 26.0704 18.4257C26.2032 18.5312 26.875 18.6484 27.004 18.5898C27.1915 18.5039 27.2383 18.2656 27.1016 18.1093C27.0274 18.0312 26.9415 18 26.6602 17.9492C26.211 17.875 26.2032 17.875 26.0782 17.9726Z" fill="#33567A"/>
<path d="M17.1993 17.9843C17.0431 18.0546 16.6368 18.7265 16.5157 19.1171C16.4454 19.3476 16.4415 19.4101 16.4806 19.5781C16.6407 20.2734 17.4376 20.5429 17.9728 20.082C18.1876 19.9023 18.2814 19.6914 18.2814 19.3867C18.2814 19.1679 18.2579 19.1015 18.0626 18.7109C17.7228 18.0429 17.5001 17.8554 17.1993 17.9843ZM17.5626 19.121C17.6837 19.3789 17.6837 19.5039 17.5548 19.6054C17.4962 19.6523 17.4259 19.6875 17.3985 19.6875C17.2931 19.6875 17.1564 19.5976 17.1134 19.5039C17.0743 19.4179 17.086 19.3632 17.2149 19.0937C17.379 18.7421 17.3829 18.7421 17.5626 19.121Z" fill="#33567A"/>
</svg>
