<svg width="20" height="22" viewBox="0 0 20 22" fill="none" xmlns="http://www.w3.org/2000/svg">
<path fill-rule="evenodd" clip-rule="evenodd" d="M7.87402 19.6856L7.28957 18.3711C7.08134 17.902 6.72966 17.511 6.28513 17.2544C5.84034 16.9979 5.3258 16.8886 4.81513 16.9422L3.38513 17.0944C2.95949 17.1392 2.53001 17.0596 2.14864 16.8654C1.76727 16.6712 1.45036 16.3706 1.23624 16C1.02206 15.6295 0.920023 15.2047 0.942507 14.7773C0.964991 14.3499 1.11103 13.9382 1.36291 13.5922L2.20957 12.4289C2.51151 12.0136 2.67411 11.5134 2.67402 11C2.67411 10.4866 2.51151 9.98635 2.20957 9.57111L1.36291 8.40778C1.11103 8.06175 0.964991 7.65007 0.942507 7.22267C0.920023 6.79528 1.02206 6.37054 1.23624 6C1.45014 5.62923 1.76702 5.32849 2.14844 5.13423C2.52987 4.93997 2.95946 4.86053 3.38513 4.90556L4.81957 5.05778C5.33024 5.11141 5.84479 5.00212 6.28957 4.74556C6.73245 4.48825 7.0825 4.09736 7.28957 3.62889L7.87402 2.31444C8.04776 1.92317 8.3313 1.59072 8.69024 1.3574C9.04919 1.12408 9.46813 0.99993 9.89624 1C10.3244 0.99993 10.7433 1.12408 11.1022 1.3574C11.4612 1.59072 11.7447 1.92317 11.9185 2.31444L12.5074 3.62889C12.7144 4.09736 13.0645 4.48825 13.5074 4.74556C13.9521 5.00212 14.4667 5.11141 14.9774 5.05778L16.4074 4.90556C16.833 4.86053 17.2626 4.93997 17.644 5.13423C18.0255 5.32849 18.3423 5.62923 18.5562 6C18.7704 6.37054 18.8725 6.79528 18.85 7.22267C18.8275 7.65007 18.6814 8.06175 18.4296 8.40778L17.5829 9.57111C17.281 9.98635 17.1184 10.4866 17.1185 11C17.1159 11.5148 17.277 12.0171 17.5785 12.4344L18.4251 13.5978C18.677 13.9438 18.823 14.3555 18.8455 14.7829C18.868 15.2103 18.766 15.635 18.5518 16.0056C18.3379 16.3763 18.021 16.6771 17.6396 16.8713C17.2582 17.0656 16.8286 17.145 16.4029 17.1L14.9729 16.9478C14.4622 16.8941 13.9477 17.0034 13.5029 17.26C13.0609 17.5159 12.711 17.9047 12.5029 18.3711L11.9185 19.6856C11.7447 20.0768 11.4612 20.4093 11.1022 20.6426C10.7433 20.8759 10.3244 21.0001 9.89624 21C9.46813 21.0001 9.04919 20.8759 8.69024 20.6426C8.3313 20.4093 8.04776 20.0768 7.87402 19.6856ZM10.0005 14C11.6573 14 13.0005 12.6569 13.0005 11C13.0005 9.34315 11.6573 8 10.0005 8C8.34363 8 7.00049 9.34315 7.00049 11C7.00049 12.6569 8.34363 14 10.0005 14Z" fill="#3E9CE2" stroke="#3E9CE2" stroke-width="1.5" stroke-linecap="round" stroke-linejoin="round"/>
</svg>
