<svg width="30" height="30" viewBox="0 0 30 30" fill="none" xmlns="http://www.w3.org/2000/svg">
<circle cx="15" cy="15" r="15" fill="white"/>
<path d="M7.96875 19.6313L6.75 18.75L10.5 12.75L12.75 15.375L15.75 10.5L17.7938 13.5563C17.5063 13.5688 17.2344 13.6031 16.9781 13.6594C16.7219 13.7156 16.4688 13.7938 16.2188 13.8938L15.8063 13.275L12.9563 17.9062L10.6875 15.2625L7.96875 19.6313ZM22.1813 23.25L19.8375 20.9063C19.5875 21.0813 19.3094 21.2125 19.0031 21.3C18.6969 21.3875 18.3813 21.4313 18.0563 21.4313C17.1188 21.4313 16.3219 21.1031 15.6656 20.4469C15.0094 19.7906 14.6813 18.9938 14.6813 18.0563C14.6813 17.1188 15.0094 16.3219 15.6656 15.6656C16.3219 15.0094 17.1188 14.6813 18.0563 14.6813C18.9938 14.6813 19.7906 15.0094 20.4469 15.6656C21.1031 16.3219 21.4313 17.1188 21.4313 18.0563C21.4313 18.3813 21.3875 18.6969 21.3 19.0031C21.2125 19.3094 21.0813 19.5938 20.9063 19.8563L23.25 22.1813L22.1813 23.25ZM18.0563 19.9313C18.5813 19.9313 19.025 19.75 19.3875 19.3875C19.75 19.025 19.9313 18.5813 19.9313 18.0563C19.9313 17.5312 19.75 17.0875 19.3875 16.725C19.025 16.3625 18.5813 16.1813 18.0563 16.1813C17.5312 16.1813 17.0875 16.3625 16.725 16.725C16.3625 17.0875 16.1813 17.5312 16.1813 18.0563C16.1813 18.5813 16.3625 19.025 16.725 19.3875C17.0875 19.75 17.5312 19.9313 18.0563 19.9313ZM19.725 13.9313C19.4875 13.8313 19.2406 13.75 18.9844 13.6875C18.7281 13.625 18.4625 13.5875 18.1875 13.575L22.0313 7.5L23.25 8.38125L19.725 13.9313Z" fill="#3E9CE2"/>
</svg>
