<svg width="40" height="40" viewBox="0 0 40 40" fill="none" xmlns="http://www.w3.org/2000/svg">
<circle cx="20" cy="20" r="20" fill="#D9D9D9"/>
<path d="M16.6875 10.1719V11.3438H20.2275H23.7676V10.1719V9H20.2275H16.6875V10.1719ZM18.6406 10.1719V10.5625H18.2744H17.9082V10.1719V9.78125H18.2744H18.6406V10.1719ZM22.5469 10.1719V10.5625H22.1807H21.8145V10.1719V9.78125H22.1807H22.5469V10.1719Z" fill="#33567A"/>
<path d="M12 20.9375V31.875H20.2275H28.4551V27.3682V22.8662H28.04H27.625V26.46V30.0537L27.498 30.1709L27.3711 30.2881H20.2178H13.0645L12.9473 30.1514L12.8301 30.0146V20.5469V11.0791L12.9473 10.9424L13.0645 10.8057L14.5098 10.791L15.9551 10.7764V10.3857V10H13.9775H12V20.9375Z" fill="#33567A"/>
<path d="M24.5 10.1719V10.5576L25.9355 10.5723L27.3711 10.5869L27.498 10.7041L27.625 10.8213V12.8623V14.9033H28.04L28.4551 14.8984V12.3398V9.78125H26.4775H24.5V10.1719Z" fill="#33567A"/>
<path d="M13.5625 20.3281V29.3125H20.2275H26.8926V26.0898C26.8926 24.21 26.873 22.8672 26.8486 22.8672C26.8242 22.8672 26.4922 22.9893 26.1162 23.1357C25.7354 23.2822 25.3643 23.4043 25.2861 23.4043C25.1396 23.4043 24.9395 23.2188 24.9395 23.082C24.9395 23.0479 25.0713 22.7256 25.2324 22.374L25.5254 21.7246L25.418 21.6123L25.3154 21.5H21.4141H17.5176V21.1094V20.7188H21.1064H24.6953L24.5928 20.5137C24.3193 19.9766 24.1191 19.0586 24.1729 18.5898L24.1973 18.375H20.8574H17.5176V17.9844V17.5938L20.9404 17.584L24.3584 17.5693L24.4951 17.2471C24.8711 16.3535 25.6621 15.5723 26.5752 15.1865L26.8682 15.0645L26.8828 13.2041L26.8926 11.3438H25.6963H24.5V11.6025C24.5 11.8223 24.4805 11.8857 24.373 11.9834L24.2461 12.1006H20.2178H16.1895L16.0723 11.9639C15.9844 11.8564 15.9551 11.7686 15.9551 11.583V11.3438H14.7588H13.5625V20.3281ZM25.1543 13.8291L25.2812 13.9463V14.8594V15.7725L25.1543 15.8896L25.0273 16.0068H20.2178H15.4082L15.291 15.8701C15.1787 15.7383 15.1738 15.7139 15.1738 14.8643C15.1738 14.0635 15.1836 13.9854 15.2715 13.8682C15.3252 13.7998 15.418 13.7314 15.4814 13.7217C15.54 13.7119 17.7129 13.7021 20.3105 13.707L25.0273 13.7119L25.1543 13.8291ZM15.9551 17.3594C16.4043 17.667 16.3994 18.3018 15.9502 18.6094C15.8135 18.707 15.7354 18.7217 15.501 18.707C15.2617 18.6875 15.1982 18.6631 15.0518 18.5215C14.7344 18.2139 14.71 17.833 14.9883 17.5156C15.1738 17.3057 15.2764 17.2568 15.5693 17.2568C15.7256 17.252 15.8428 17.2861 15.9551 17.3594ZM15.9551 20.4844C16.4043 20.792 16.3994 21.4268 15.9502 21.7344C15.8135 21.832 15.7354 21.8467 15.501 21.832C15.2617 21.8125 15.1982 21.7881 15.0518 21.6465C14.7344 21.3389 14.71 20.958 14.9883 20.6406C15.1738 20.4307 15.2764 20.3818 15.5693 20.3818C15.7256 20.377 15.8428 20.4111 15.9551 20.4844ZM15.9551 23.6094C16.4043 23.917 16.3994 24.5518 15.9502 24.8594C15.8135 24.957 15.7354 24.9717 15.501 24.957C15.2617 24.9375 15.1982 24.9131 15.0518 24.7715C14.7344 24.4639 14.71 24.083 14.9883 23.7656C15.1738 23.5557 15.2764 23.5068 15.5693 23.5068C15.7256 23.502 15.8428 23.5361 15.9551 23.6094ZM26.0625 24.2344V24.625H21.79H17.5176V24.2344V23.8438H21.79H26.0625V24.2344ZM15.9551 26.7344C16.4043 27.042 16.3994 27.6768 15.9502 27.9844C15.8135 28.082 15.7354 28.0967 15.501 28.082C15.2617 28.0625 15.1982 28.0381 15.0518 27.8965C14.7344 27.5889 14.71 27.208 14.9883 26.8906C15.1738 26.6807 15.2764 26.6318 15.5693 26.6318C15.7256 26.627 15.8428 26.6611 15.9551 26.7344ZM26.0625 27.3594V27.75H21.79H17.5176V27.3594V26.9688H21.79H26.0625V27.3594Z" fill="#33567A"/>
<path d="M15.9062 14.8594V15.25H16.7119H17.5176V14.8594V14.4688H16.7119H15.9062V14.8594Z" fill="#33567A"/>
<path d="M18.25 14.8594V15.25H20.6182H22.9863V14.8594V14.4688H20.6182H18.25V14.8594Z" fill="#33567A"/>
<path d="M23.7188 14.8594V15.25H24.1338H24.5488V14.8594V14.4688H24.1338H23.7188V14.8594Z" fill="#33567A"/>
<path d="M27.21 15.7335C26.5654 15.9288 26.126 16.2022 25.7061 16.6661C24.8467 17.6182 24.6611 19.005 25.2373 20.1817C25.3984 20.5089 25.5303 20.6847 25.8525 21.0118C26.082 21.2364 26.2871 21.461 26.3115 21.5098C26.3457 21.5733 26.3164 21.6905 26.209 21.9493C26.126 22.1397 26.0674 22.3155 26.0723 22.3302C26.082 22.3497 26.3408 22.2667 26.6484 22.1446L27.21 21.92L27.9424 21.9151C28.626 21.9102 28.7041 21.9005 29.0947 21.7638C30.0713 21.4171 30.8037 20.6749 31.1064 19.7179C31.1943 19.4395 31.2139 19.2638 31.2139 18.7413C31.2139 18.1798 31.1943 18.0675 31.082 17.7501C30.7451 16.8223 30.0762 16.1485 29.1484 15.797C28.6992 15.6261 27.6641 15.5919 27.21 15.7335ZM28.6992 17.6182L29.334 16.9835L29.5879 17.2423L29.8467 17.4962L29.2119 18.1309L28.5771 18.7657L29.2119 19.4005L29.8467 20.0352L29.5879 20.2891L29.334 20.5479L28.6992 19.9132L28.0645 19.2784L27.415 19.9278L26.7705 20.5723L26.5117 20.3184L26.2578 20.0597L26.9023 19.4151L27.5518 18.7657L26.9023 18.1163L26.2578 17.4718L26.5117 17.213L26.7705 16.9591L27.415 17.6036L28.0645 18.253L28.6992 17.6182Z" fill="#33567A"/>
</svg>
