<svg width="24" height="24" viewBox="0 0 24 24" fill="none" xmlns="http://www.w3.org/2000/svg">
<path d="M5.55002 12.4971V10.6864L4.26969 11.9668L3.91822 12.3182C3.74249 12.494 3.45756 12.494 3.28183 12.3182L2.75675 12.8433L3.28183 12.3182C3.10609 12.1425 3.10609 11.8576 3.28183 11.6818L2.76232 11.1623L3.28183 11.6818L11.6818 3.28183L11.1623 2.76232L11.6818 3.28183C11.8576 3.10609 12.1425 3.10609 12.3182 3.28183L12.8486 2.7515L12.3182 3.28183L20.7182 11.6818C20.894 11.8576 20.894 12.1425 20.7182 12.3182C20.5425 12.494 20.2576 12.494 20.0818 12.3182L19.7304 11.9668L18.45 10.6864V12.4971V20.4C18.45 20.6486 18.2486 20.85 18 20.85H15.6C15.3515 20.85 15.15 20.6486 15.15 20.4V18C15.15 16.9231 14.277 16.05 13.2 16.05H10.8C9.72307 16.05 8.85002 16.9231 8.85002 18V20.4C8.85002 20.6486 8.64855 20.85 8.40002 20.85H6.00002C5.7515 20.85 5.55002 20.6486 5.55002 20.4V12.4971Z" stroke="#97A3B6" stroke-width="1.5"/>
</svg>
