<svg width="40" height="40" viewBox="0 0 40 40" fill="none" xmlns="http://www.w3.org/2000/svg">
<circle cx="20" cy="20" r="20" fill="#D9D9D9"/>
<path d="M16.6094 10.1172C16.1602 10.3008 15.8555 10.6562 15.7344 11.1367L15.668 11.4102L15.4531 11.3125C15.1484 11.1719 14.6289 11.1484 14.3164 11.2656C13.8672 11.4336 13.5625 11.7539 13.4219 12.2031C13.3516 12.4219 13.3438 12.5586 13.3438 13.4023V14.3516L13.1172 14.2461C12.8047 14.0977 12.2891 14.0781 11.9727 14.1953C11.5234 14.3633 11.2188 14.6836 11.0781 15.1328C11.0039 15.3711 11 15.4844 11 19.0977V22.8203L11.0898 22.9023C11.2227 23.0273 11.4375 23.0195 11.543 22.8867C11.625 22.7812 11.625 22.7656 11.625 19.1016V15.4258L11.7344 15.2109C11.8047 15.0742 11.8984 14.9609 12.0078 14.8828C12.1641 14.7773 12.207 14.7656 12.4844 14.7656C12.7617 14.7656 12.8047 14.7773 12.9609 14.8828C13.0703 14.9609 13.1641 15.0742 13.2383 15.2109L13.3438 15.4258V17.9492V20.4766L13.4336 20.5586C13.5664 20.6836 13.7812 20.6758 13.8867 20.543C13.9688 20.4375 13.9688 20.4258 13.9688 16.4648V12.4961L14.0742 12.2812C14.1484 12.1445 14.2422 12.0312 14.3516 11.9531C14.5078 11.8477 14.5508 11.8359 14.8281 11.8359C15.1055 11.8359 15.1484 11.8477 15.3047 11.9531C15.4141 12.0312 15.5078 12.1445 15.582 12.2812L15.6875 12.4961V16.4844V20.4766L15.7773 20.5586C15.9102 20.6836 16.125 20.6758 16.2305 20.543C16.3125 20.4375 16.3125 20.4336 16.3125 15.8789V11.3242L16.4219 11.1094C16.4922 10.9727 16.5859 10.8594 16.6953 10.7812C16.8516 10.6758 16.8945 10.6641 17.1719 10.6641C17.4492 10.6641 17.4922 10.6758 17.6484 10.7812C17.7578 10.8594 17.8516 10.9727 17.9258 11.1094L18.0312 11.3242V14.7656C18.0312 18.418 18.0312 18.4414 18.2148 18.7227C18.2852 18.8398 18.2656 18.8633 18.1133 18.8281C17.8008 18.7617 17.4844 18.3555 17.4844 18.0234C17.4844 17.7461 17.125 17.6016 16.9375 17.8008C16.7383 18.0156 16.9609 18.7734 17.3242 19.0977L17.4062 19.1719L17.2773 19.3125C17.0977 19.5117 16.9922 19.6953 16.9219 19.9375C16.7891 20.3945 16.8789 20.6445 17.1797 20.6445C17.3516 20.6445 17.4844 20.5039 17.4844 20.3164C17.4844 20 17.8086 19.5977 18.1133 19.5312C18.2656 19.4961 18.2852 19.5195 18.2148 19.6367C18.1797 19.6836 18.1289 19.8203 18.0938 19.9375C17.8789 20.6758 18.2734 21.4688 18.9883 21.7344C19.1719 21.8047 19.293 21.8164 19.7891 21.8164H20.375V22.6914V23.5664L20.1523 23.5938C20.0273 23.6094 19.7812 23.6641 19.6016 23.7148C18.0781 24.1562 16.9766 25.5273 16.8711 27.1211C16.8477 27.4609 16.8516 27.4883 16.9375 27.5781C17.0039 27.6484 17.0703 27.6758 17.1758 27.6758C17.3945 27.6758 17.4648 27.5625 17.4961 27.1602C17.6211 25.582 18.8398 24.3477 20.4219 24.1992C21.0391 24.1406 21 24.2461 21 22.6797V21.3984L20.9102 21.3164C20.8242 21.2344 20.7812 21.2305 20.2109 21.2305C19.4961 21.2305 19.2383 21.1914 19.0273 21.043C18.832 20.9102 18.6562 20.582 18.6562 20.3516C18.6562 20.1211 18.832 19.793 19.0273 19.6602C19.2578 19.5 19.5508 19.4609 20.3359 19.4844C20.8711 19.5 21.0742 19.5234 21.2773 19.5859C21.9609 19.8008 22.4961 20.3867 22.6641 21.1016C22.7148 21.3281 22.7227 21.6133 22.707 22.9883C22.6914 24.457 22.6836 24.6445 22.6094 24.9688C22.3438 26.1289 21.8359 27.0391 21.0039 27.8438C20.0352 28.7734 18.875 29.2969 17.5703 29.3867C15.9688 29.5 14.5039 28.9648 13.3398 27.8438C12.3086 26.8477 11.7227 25.5859 11.6406 24.1797C11.6094 23.6719 11.5547 23.5742 11.3086 23.5742C10.9922 23.5742 10.9414 23.7891 11.0586 24.6758C11.2383 26.0352 11.8164 27.2148 12.7852 28.1992C13.6484 29.0703 14.6719 29.6328 15.9102 29.9141C16.2422 29.9883 16.4102 30 17.1719 30C17.9336 30 18.1016 29.9883 18.4336 29.9141C19.0039 29.7852 19.4727 29.6133 19.9805 29.3555C21.8438 28.3984 23.082 26.6016 23.3047 24.5312C23.3359 24.25 23.3438 23.5703 23.3359 22.5586L23.3242 21.0156L23.2148 20.7031C23.1523 20.5312 23.0703 20.332 23.0312 20.2617L22.9531 20.1367L23.1875 20.293C23.9258 20.793 24.543 21.6289 24.8438 22.5273C24.957 22.8594 25.0625 23.4766 25.0625 23.793C25.0625 23.9492 25.082 24.0078 25.1523 24.0742C25.2852 24.1992 25.5 24.1914 25.6094 24.0508C25.6914 23.9531 25.6953 23.918 25.6719 23.5625C25.625 22.8516 25.4766 22.2852 25.1562 21.6406C24.9023 21.125 24.5508 20.6445 24.1445 20.2578C23.8242 19.9531 23.8555 19.957 24.3203 20.2656C24.668 20.5 25.1719 20.9961 25.4219 21.3477C25.9102 22.0391 26.2344 23.0078 26.2344 23.7734C26.2344 23.9492 26.25 24.0078 26.3242 24.0742C26.457 24.1992 26.6719 24.1914 26.7812 24.0508C26.8633 23.9531 26.8672 23.918 26.8438 23.5625C26.7969 22.8516 26.6484 22.2852 26.3281 21.6406C26.0742 21.125 25.7227 20.6445 25.3164 20.2578C24.9961 19.9531 25.0273 19.957 25.4922 20.2656C25.8398 20.5 26.3438 20.9961 26.5938 21.3477C27.082 22.0391 27.4062 23.0078 27.4062 23.7734C27.4062 24.0391 27.5078 24.1602 27.7266 24.1602C28.0273 24.1602 28.0898 23.9023 27.9727 23.1445C27.6875 21.2617 26.4023 19.7266 24.6094 19.125C23.9766 18.9102 23.7148 18.8867 22.1445 18.8867H20.7188L20.7969 18.7578C20.9844 18.457 21 18.3008 21 16.793C21 15.4883 20.9922 15.3594 20.9219 15.1328C20.7812 14.6836 20.4766 14.3633 20.0273 14.1953C19.7109 14.0781 19.1953 14.0977 18.8828 14.2461L18.6562 14.3516V12.8164C18.6562 11.3867 18.6523 11.2617 18.5781 11.0312C18.3789 10.3906 17.8516 10.0195 17.1602 10.0195C16.9102 10.0195 16.7891 10.043 16.6094 10.1172ZM19.9922 14.8828C20.1016 14.9609 20.1992 15.0742 20.2695 15.2109L20.375 15.4258V16.7969V18.168L20.2695 18.3828C20.1953 18.5195 20.1016 18.6328 19.9922 18.7109C19.8359 18.8164 19.793 18.8281 19.5156 18.8281C19.2383 18.8281 19.1953 18.8164 19.0391 18.7109C18.9297 18.6328 18.8359 18.5195 18.7656 18.3828L18.6562 18.168V16.8008C18.6562 15.4375 18.6562 15.4297 18.75 15.2305C18.9102 14.8906 19.1641 14.7422 19.5625 14.7578C19.7812 14.7656 19.8555 14.7891 19.9922 14.8828Z" fill="#33567A"/>
</svg>
