<svg width="20" height="22" viewBox="0 0 20 22" fill="none" xmlns="http://www.w3.org/2000/svg">
<path d="M10.0005 14C11.6573 14 13.0005 12.6569 13.0005 11C13.0005 9.34315 11.6573 8 10.0005 8C8.34363 8 7.00049 9.34315 7.00049 11C7.00049 12.6569 8.34363 14 10.0005 14Z" stroke="#97A3B6" stroke-width="1.5" stroke-linecap="round" stroke-linejoin="round"/>
<path d="M7.28957 18.3711L7.87402 19.6856C8.04776 20.0768 8.3313 20.4093 8.69024 20.6426C9.04919 20.8759 9.46813 21.0001 9.89624 21C10.3244 21.0001 10.7433 20.8759 11.1022 20.6426C11.4612 20.4093 11.7447 20.0768 11.9185 19.6856L12.5029 18.3711C12.711 17.9047 13.0609 17.5159 13.5029 17.26C13.9477 17.0034 14.4622 16.8941 14.9729 16.9478L16.4029 17.1C16.8286 17.145 17.2582 17.0656 17.6396 16.8713C18.021 16.6771 18.3379 16.3763 18.5518 16.0056C18.766 15.635 18.868 15.2103 18.8455 14.7829C18.823 14.3555 18.677 13.9438 18.4251 13.5978L17.5785 12.4344C17.277 12.0171 17.1159 11.5148 17.1185 11C17.1184 10.4866 17.281 9.98635 17.5829 9.57111L18.4296 8.40778C18.6814 8.06175 18.8275 7.65007 18.85 7.22267C18.8725 6.79528 18.7704 6.37054 18.5562 6C18.3423 5.62923 18.0255 5.32849 17.644 5.13423C17.2626 4.93997 16.833 4.86053 16.4074 4.90556L14.9774 5.05778C14.4667 5.11141 13.9521 5.00212 13.5074 4.74556C13.0645 4.48825 12.7144 4.09736 12.5074 3.62889L11.9185 2.31444C11.7447 1.92317 11.4612 1.59072 11.1022 1.3574C10.7433 1.12408 10.3244 0.99993 9.89624 1C9.46813 0.99993 9.04919 1.12408 8.69024 1.3574C8.3313 1.59072 8.04776 1.92317 7.87402 2.31444L7.28957 3.62889C7.0825 4.09736 6.73245 4.48825 6.28957 4.74556C5.84479 5.00212 5.33024 5.11141 4.81957 5.05778L3.38513 4.90556C2.95946 4.86053 2.52987 4.93997 2.14844 5.13423C1.76702 5.32849 1.45014 5.62923 1.23624 6C1.02206 6.37054 0.920023 6.79528 0.942507 7.22267C0.964991 7.65007 1.11103 8.06175 1.36291 8.40778L2.20957 9.57111C2.51151 9.98635 2.67411 10.4866 2.67402 11C2.67411 11.5134 2.51151 12.0137 2.20957 12.4289L1.36291 13.5922C1.11103 13.9382 0.964991 14.3499 0.942507 14.7773C0.920023 15.2047 1.02206 15.6295 1.23624 16C1.45036 16.3706 1.76727 16.6712 2.14864 16.8654C2.53001 17.0596 2.95949 17.1392 3.38513 17.0944L4.81513 16.9422C5.3258 16.8886 5.84034 16.9979 6.28513 17.2544C6.72966 17.511 7.08134 17.902 7.28957 18.3711Z" stroke="#97A3B6" stroke-width="1.5" stroke-linecap="round" stroke-linejoin="round"/>
</svg>
